<svg width="16" height="16" viewBox="0 0 16 16" fill="none" xmlns="http://www.w3.org/2000/svg">
<g clip-path="url(#clip0_9_37175)">
<rect width="1" height="1" transform="translate(3 4)" fill="#FAAD14"/>
<rect width="1" height="1" transform="translate(3 12)" fill="#030852"/>
<rect width="1" height="1" transform="translate(3 10)" fill="#030852"/>
<rect width="1" height="1" transform="translate(3 6)" fill="#FFD8BF"/>
<rect width="1" height="1" transform="translate(4 8)" fill="#FFD8BF"/>
<rect width="1" height="1" transform="translate(4 4)" fill="#FFC53D"/>
<rect width="1" height="1" transform="translate(4 12)" fill="#061178"/>
<rect width="1" height="1" transform="translate(4 10)" fill="#2F54EB"/>
<rect width="1" height="1" transform="translate(4 6)" fill="#FFD8BF"/>
<rect width="1" height="1" transform="translate(5 8)" fill="#FFD8BF"/>
<rect width="1" height="1" transform="translate(5 4)" fill="#FFC53D"/>
<rect width="1" height="1" transform="translate(5 12)" fill="#597EF7"/>
<rect width="1" height="1" transform="translate(5 10)" fill="#061178"/>
<rect width="1" height="1" transform="translate(5 6)" fill="#780650"/>
<rect width="1" height="1" transform="translate(5 14)" fill="black"/>
<rect width="1" height="1" transform="translate(6 8)" fill="#FFD8BF"/>
<rect width="1" height="1" transform="translate(6 4)" fill="#FFC53D"/>
<rect width="1" height="1" transform="translate(6 12)" fill="#597EF7"/>
<rect width="1" height="1" transform="translate(6 10)" fill="#2F54EB"/>
<rect width="1" height="1" transform="translate(6 6)" fill="#520339"/>
<rect width="1" height="1" transform="translate(6 14)" fill="#061178"/>
<rect width="1" height="1" transform="translate(7 8)" fill="#FFD8BF"/>
<rect width="1" height="1" transform="translate(7 4)" fill="#FFC53D"/>
<rect width="1" height="1" transform="translate(7 12)" fill="#FFD8BF"/>
<rect width="1" height="1" transform="translate(7 10)" fill="#FFD8BF"/>
<rect width="1" height="1" transform="translate(7 6)" fill="#780650"/>
<rect width="1" height="1" transform="translate(8 8)" fill="#FFD8BF"/>
<rect width="1" height="1" transform="translate(8 4)" fill="#FFC53D"/>
<rect width="1" height="1" transform="translate(8 12)" fill="#2F54EB"/>
<rect width="1" height="1" transform="translate(8 10)" fill="#FFD8BF"/>
<rect width="1" height="1" transform="translate(8 6)" fill="#780650"/>
<rect width="1" height="1" transform="translate(9 8)" fill="#FFD8BF"/>
<rect width="1" height="1" transform="translate(9 4)" fill="#FFC53D"/>
<rect width="1" height="1" transform="translate(9 12)" fill="#2F54EB"/>
<rect width="1" height="1" transform="translate(9 10)" fill="#FFD8BF"/>
<rect width="1" height="1" transform="translate(9 6)" fill="#780650"/>
<rect width="1" height="1" transform="translate(9 14)" fill="#061178"/>
<rect width="1" height="1" transform="translate(10 8)" fill="#FFD8BF"/>
<rect width="1" height="1" transform="translate(10 4)" fill="#FFC53D"/>
<rect width="1" height="1" transform="translate(10 12)" fill="#2F54EB"/>
<rect width="1" height="1" transform="translate(10 10)" fill="#2F54EB"/>
<rect width="1" height="1" transform="translate(10 6)" fill="#520339"/>
<rect width="1" height="1" transform="translate(10 14)" fill="#061178"/>
<rect width="1" height="1" transform="translate(11 8)" fill="#FFD8BF"/>
<rect width="1" height="1" transform="translate(11 4)" fill="#FFC53D"/>
<rect width="1" height="1" transform="translate(11 12)" fill="#597EF7"/>
<rect width="1" height="1" transform="translate(11 10)" fill="#2F54EB"/>
<rect width="1" height="1" transform="translate(11 6)" fill="#780650"/>
<rect width="1" height="1" transform="translate(12 12)" fill="#FFD8BF"/>
<rect width="1" height="1" transform="translate(3 5)" fill="#3F6600"/>
<rect width="1" height="1" transform="translate(3 13)" fill="#E5E5E5"/>
<rect width="1" height="1" transform="translate(3 11)" fill="#120338"/>
<rect width="1" height="1" transform="translate(3 7)" fill="#FFD8BF"/>
<rect width="1" height="1" transform="translate(4 9)" fill="#030852"/>
<rect width="1" height="1" transform="translate(4 5)" fill="#3F6600"/>
<rect width="1" height="1" transform="translate(4 13)" fill="#030852"/>
<rect width="1" height="1" transform="translate(4 3)" fill="#FAAD14"/>
<rect width="1" height="1" transform="translate(4 11)" fill="#061178"/>
<rect width="1" height="1" transform="translate(4 7)" fill="#FFD8BF"/>
<rect width="1" height="1" transform="translate(5 9)" fill="#2F54EB"/>
<rect width="1" height="1" transform="translate(5 5)" fill="#3F6600"/>
<rect width="1" height="1" transform="translate(5 13)" fill="black"/>
<rect width="1" height="1" transform="translate(5 3)" fill="#FFC53D"/>
<rect width="1" height="1" transform="translate(5 11)" fill="#597EF7"/>
<rect width="1" height="1" transform="translate(5 7)" fill="#780650"/>
<rect width="1" height="1" transform="translate(5 15)" fill="#10239E"/>
<rect width="1" height="1" transform="translate(6 9)" fill="#FFD8BF"/>
<rect width="1" height="1" transform="translate(6 5)" fill="#7CB305"/>
<rect width="1" height="1" transform="translate(6 13)" fill="#061178"/>
<rect width="1" height="1" transform="translate(6 3)" fill="#FFC53D"/>
<rect width="1" height="1" transform="translate(6 11)" fill="#22075E"/>
<rect width="1" height="1" transform="translate(6 7)" fill="#520339"/>
<rect width="1" height="1" transform="translate(6 15)" fill="#10239E"/>
<rect width="1" height="1" transform="translate(7 9)" fill="#FFD8BF"/>
<rect width="1" height="1" transform="translate(7 5)" fill="#7CB305"/>
<rect width="1" height="1" transform="translate(7 13)" fill="#061178"/>
<rect width="1" height="1" transform="translate(7 3)" fill="#FFC53D"/>
<rect width="1" height="1" transform="translate(7 11)" fill="#2F54EB"/>
<rect width="1" height="1" transform="translate(7 7)" fill="#780650"/>
<rect width="1" height="1" transform="translate(8 9)" fill="#FFBB96"/>
<rect width="1" height="1" transform="translate(8 5)" fill="#7CB305"/>
<rect width="1" height="1" transform="translate(8 13)" fill="#061178"/>
<rect width="1" height="1" transform="translate(8 3)" fill="#FFC53D"/>
<rect width="1" height="1" transform="translate(8 11)" fill="#2F54EB"/>
<rect width="1" height="1" transform="translate(8 7)" fill="#FFD8BF"/>
<rect width="1" height="1" transform="translate(9 9)" fill="#FFD8BF"/>
<rect width="1" height="1" transform="translate(9 5)" fill="#7CB305"/>
<rect width="1" height="1" transform="translate(9 13)" fill="#061178"/>
<rect width="1" height="1" transform="translate(9 3)" fill="#FFC53D"/>
<rect width="1" height="1" transform="translate(9 11)" fill="#2F54EB"/>
<rect width="1" height="1" transform="translate(9 7)" fill="#780650"/>
<rect width="1" height="1" transform="translate(9 15)" fill="#10239E"/>
<rect width="1" height="1" transform="translate(10 9)" fill="#FFD8BF"/>
<rect width="1" height="1" transform="translate(10 5)" fill="#7CB305"/>
<rect width="1" height="1" transform="translate(10 13)" fill="#061178"/>
<rect width="1" height="1" transform="translate(10 3)" fill="#FFD666"/>
<rect width="1" height="1" transform="translate(10 11)" fill="#2F54EB"/>
<rect width="1" height="1" transform="translate(10 7)" fill="#520339"/>
<rect width="1" height="1" transform="translate(10 15)" fill="#10239E"/>
<rect width="1" height="1" transform="translate(11 5)" fill="#7CB305"/>
<rect width="1" height="1" transform="translate(11 11)" fill="#597EF7"/>
<rect width="1" height="1" transform="translate(11 7)" fill="#780650"/>
</g>
<defs>
<clipPath id="clip0_9_37175">
<rect width="16" height="16" fill="white"/>
</clipPath>
</defs>
</svg>
