<svg width="16" height="16" viewBox="0 0 16 16" fill="none" xmlns="http://www.w3.org/2000/svg">
<g clip-path="url(#clip0_9_36918)">
<rect width="1" height="1" transform="translate(3 12)" fill="#5C0011"/>
<rect width="1" height="1" transform="translate(3 10)" fill="#5C0011"/>
<rect width="1" height="1" transform="translate(3 6)" fill="#CCCCCC"/>
<rect width="1" height="1" transform="translate(4 8)" fill="#CCCCCC"/>
<rect width="1" height="1" transform="translate(4 4)" fill="#CCCCCC"/>
<rect width="1" height="1" transform="translate(4 12)" fill="#820014"/>
<rect width="1" height="1" transform="translate(4 10)" fill="#F5222D"/>
<rect width="1" height="1" transform="translate(4 6)" fill="#CCCCCC"/>
<rect width="1" height="1" transform="translate(5 8)" fill="#CCCCCC"/>
<rect width="1" height="1" transform="translate(5 4)" fill="#CCCCCC"/>
<rect width="1" height="1" transform="translate(5 12)" fill="#FF4D4F"/>
<rect width="1" height="1" transform="translate(5 10)" fill="#820014"/>
<rect width="1" height="1" transform="translate(5 6)" fill="black"/>
<rect width="1" height="1" transform="translate(5 14)" fill="black"/>
<rect width="1" height="1" transform="translate(6 8)" fill="#CCCCCC"/>
<rect width="1" height="1" transform="translate(6 4)" fill="#CCCCCC"/>
<rect width="1" height="1" transform="translate(6 12)" fill="#FF4D4F"/>
<rect width="1" height="1" transform="translate(6 10)" fill="#F5222D"/>
<rect width="1" height="1" transform="translate(6 6)" fill="black"/>
<rect width="1" height="1" transform="translate(6 14)" fill="#820014"/>
<rect width="1" height="1" transform="translate(7 8)" fill="#CCCCCC"/>
<rect width="1" height="1" transform="translate(7 4)" fill="#CCCCCC"/>
<rect width="1" height="1" transform="translate(7 12)" fill="#FFD8BF"/>
<rect width="1" height="1" transform="translate(7 10)" fill="#FFD8BF"/>
<rect width="1" height="1" transform="translate(7 6)" fill="black"/>
<rect width="1" height="1" transform="translate(8 8)" fill="#CCCCCC"/>
<rect width="1" height="1" transform="translate(8 4)" fill="#CCCCCC"/>
<rect width="1" height="1" transform="translate(8 12)" fill="#F5222D"/>
<rect width="1" height="1" transform="translate(8 10)" fill="#FFD8BF"/>
<rect width="1" height="1" transform="translate(8 6)" fill="black"/>
<rect width="1" height="1" transform="translate(9 8)" fill="#CCCCCC"/>
<rect width="1" height="1" transform="translate(9 4)" fill="#CCCCCC"/>
<rect width="1" height="1" transform="translate(9 12)" fill="#F5222D"/>
<rect width="1" height="1" transform="translate(9 10)" fill="#FFD8BF"/>
<rect width="1" height="1" transform="translate(9 6)" fill="black"/>
<rect width="1" height="1" transform="translate(9 14)" fill="#820014"/>
<rect width="1" height="1" transform="translate(10 8)" fill="#CCCCCC"/>
<rect width="1" height="1" transform="translate(10 4)" fill="#CCCCCC"/>
<rect width="1" height="1" transform="translate(10 12)" fill="#F5222D"/>
<rect width="1" height="1" transform="translate(10 10)" fill="#F5222D"/>
<rect width="1" height="1" transform="translate(10 6)" fill="black"/>
<rect width="1" height="1" transform="translate(10 14)" fill="#820014"/>
<rect width="1" height="1" transform="translate(11 8)" fill="#CCCCCC"/>
<rect width="1" height="1" transform="translate(11 4)" fill="#B2B2B2"/>
<rect width="1" height="1" transform="translate(11 12)" fill="#FF4D4F"/>
<rect width="1" height="1" transform="translate(11 10)" fill="#F5222D"/>
<rect width="1" height="1" transform="translate(11 6)" fill="black"/>
<rect width="1" height="1" transform="translate(12 8)" fill="#CCCCCC"/>
<rect width="1" height="1" transform="translate(12 12)" fill="#FFD8BF"/>
<rect width="1" height="1" transform="translate(12 6)" fill="#CCCCCC"/>
<rect width="1" height="1" transform="translate(3 5)" fill="#CCCCCC"/>
<rect width="1" height="1" transform="translate(3 11)" fill="#5C0011"/>
<rect width="1" height="1" transform="translate(3 7)" fill="#CCCCCC"/>
<rect width="1" height="1" transform="translate(4 9)" fill="#5C0011"/>
<rect width="1" height="1" transform="translate(4 5)" fill="#CCCCCC"/>
<rect width="1" height="1" transform="translate(4 13)" fill="#5C0011"/>
<rect width="1" height="1" transform="translate(4 11)" fill="#820014"/>
<rect width="1" height="1" transform="translate(4 7)" fill="#CCCCCC"/>
<rect width="1" height="1" transform="translate(5 9)" fill="#F5222D"/>
<rect width="1" height="1" transform="translate(5 5)" fill="#CCCCCC"/>
<rect width="1" height="1" transform="translate(5 13)" fill="black"/>
<rect width="1" height="1" transform="translate(5 3)" fill="#CCCCCC"/>
<rect width="1" height="1" transform="translate(5 11)" fill="#FF4D4F"/>
<rect width="1" height="1" transform="translate(5 7)" fill="black"/>
<rect width="1" height="1" transform="translate(5 15)" fill="#08979C"/>
<rect width="1" height="1" transform="translate(6 9)" fill="#FFD8BF"/>
<rect width="1" height="1" transform="translate(6 5)" fill="#CCCCCC"/>
<rect width="1" height="1" transform="translate(6 13)" fill="#820014"/>
<rect width="1" height="1" transform="translate(6 3)" fill="#CCCCCC"/>
<rect width="1" height="1" transform="translate(6 11)" fill="#820014"/>
<rect width="1" height="1" transform="translate(6 7)" fill="black"/>
<rect width="1" height="1" transform="translate(6 15)" fill="#08979C"/>
<rect width="1" height="1" transform="translate(7 9)" fill="#FFD8BF"/>
<rect width="1" height="1" transform="translate(7 5)" fill="#CCCCCC"/>
<rect width="1" height="1" transform="translate(7 13)" fill="#820014"/>
<rect width="1" height="1" transform="translate(7 3)" fill="#CCCCCC"/>
<rect width="1" height="1" transform="translate(7 11)" fill="#F5222D"/>
<rect width="1" height="1" transform="translate(7 7)" fill="black"/>
<rect width="1" height="1" transform="translate(8 9)" fill="#FF9C6E"/>
<rect width="1" height="1" transform="translate(8 5)" fill="#CCCCCC"/>
<rect width="1" height="1" transform="translate(8 13)" fill="#820014"/>
<rect width="1" height="1" transform="translate(8 3)" fill="#CCCCCC"/>
<rect width="1" height="1" transform="translate(8 11)" fill="#F5222D"/>
<rect width="1" height="1" transform="translate(8 7)" fill="black"/>
<rect width="1" height="1" transform="translate(9 9)" fill="#FFD8BF"/>
<rect width="1" height="1" transform="translate(9 5)" fill="#CCCCCC"/>
<rect width="1" height="1" transform="translate(9 13)" fill="#820014"/>
<rect width="1" height="1" transform="translate(9 3)" fill="#CCCCCC"/>
<rect width="1" height="1" transform="translate(9 11)" fill="#F5222D"/>
<rect width="1" height="1" transform="translate(9 7)" fill="black"/>
<rect width="1" height="1" transform="translate(9 15)" fill="#08979C"/>
<rect width="1" height="1" transform="translate(10 9)" fill="#FFD8BF"/>
<rect width="1" height="1" transform="translate(10 5)" fill="#CCCCCC"/>
<rect width="1" height="1" transform="translate(10 13)" fill="#820014"/>
<rect width="1" height="1" transform="translate(10 3)" fill="#B2B2B2"/>
<rect width="1" height="1" transform="translate(10 11)" fill="#F5222D"/>
<rect width="1" height="1" transform="translate(10 7)" fill="black"/>
<rect width="1" height="1" transform="translate(10 15)" fill="#08979C"/>
<rect width="1" height="1" transform="translate(11 5)" fill="#CCCCCC"/>
<rect width="1" height="1" transform="translate(11 11)" fill="#FF4D4F"/>
<rect width="1" height="1" transform="translate(11 7)" fill="black"/>
<rect width="1" height="1" transform="translate(12 5)" fill="#CCCCCC"/>
<rect width="1" height="1" transform="translate(12 7)" fill="#CCCCCC"/>
</g>
<defs>
<clipPath id="clip0_9_36918">
<rect width="16" height="16" fill="white"/>
</clipPath>
</defs>
</svg>
