<svg width="10" height="13" viewBox="0 0 10 13" fill="none" xmlns="http://www.w3.org/2000/svg">
<rect width="1" height="1" transform="translate(0 9)" fill="#002329"/>
<rect width="1" height="1" transform="translate(0 7)" fill="#002329"/>
<rect width="1" height="1" transform="translate(0 3)" fill="#FFD8BF"/>
<rect width="1" height="1" transform="translate(1 5)" fill="#FFD8BF"/>
<rect width="1" height="1" transform="translate(1 1)" fill="#FFD8BF"/>
<rect width="1" height="1" transform="translate(1 9)" fill="#00474F"/>
<rect width="1" height="1" transform="translate(1 7)" fill="#13C2C2"/>
<rect width="1" height="1" transform="translate(1 3)" fill="#FFD8BF"/>
<rect width="1" height="1" transform="translate(2 5)" fill="#FFD8BF"/>
<rect width="1" height="1" transform="translate(2 1)" fill="#FFD8BF"/>
<rect width="1" height="1" transform="translate(2 9)" fill="#36CFC9"/>
<rect width="1" height="1" transform="translate(2 7)" fill="#00474F"/>
<rect width="1" height="1" transform="translate(2 3)" fill="#FFD8BF"/>
<rect width="1" height="1" transform="translate(2 11)" fill="black"/>
<rect width="1" height="1" transform="translate(3 5)" fill="#FFD8BF"/>
<rect width="1" height="1" transform="translate(3 1)" fill="#FFD8BF"/>
<rect width="1" height="1" transform="translate(3 9)" fill="#36CFC9"/>
<rect width="1" height="1" transform="translate(3 7)" fill="#13C2C2"/>
<rect width="1" height="1" transform="translate(3 3)" fill="black"/>
<rect width="1" height="1" transform="translate(3 11)" fill="#00474F"/>
<rect width="1" height="1" transform="translate(4 5)" fill="#FFD8BF"/>
<rect width="1" height="1" transform="translate(4 1)" fill="#FF4D4F"/>
<rect width="1" height="1" transform="translate(4 9)" fill="#FFD8BF"/>
<rect width="1" height="1" transform="translate(4 7)" fill="#FFD8BF"/>
<rect width="1" height="1" transform="translate(4 3)" fill="#FFD8BF"/>
<rect width="1" height="1" transform="translate(5 5)" fill="#FFD8BF"/>
<rect width="1" height="1" transform="translate(5 1)" fill="#F5222D"/>
<rect width="1" height="1" transform="translate(5 9)" fill="#13C2C2"/>
<rect width="1" height="1" transform="translate(5 7)" fill="#FFD8BF"/>
<rect width="1" height="1" transform="translate(5 3)" fill="#FFD8BF"/>
<rect width="1" height="1" transform="translate(6 5)" fill="#FFD8BF"/>
<rect width="1" height="1" transform="translate(6 1)" fill="#FF4D4F"/>
<rect width="1" height="1" transform="translate(6 9)" fill="#13C2C2"/>
<rect width="1" height="1" transform="translate(6 7)" fill="#FFD8BF"/>
<rect width="1" height="1" transform="translate(6 3)" fill="#FFD8BF"/>
<rect width="1" height="1" transform="translate(6 11)" fill="#00474F"/>
<rect width="1" height="1" transform="translate(7 5)" fill="#FFD8BF"/>
<rect width="1" height="1" transform="translate(7 1)" fill="#FFD8BF"/>
<rect width="1" height="1" transform="translate(7 9)" fill="#13C2C2"/>
<rect width="1" height="1" transform="translate(7 7)" fill="#13C2C2"/>
<rect width="1" height="1" transform="translate(7 3)" fill="black"/>
<rect width="1" height="1" transform="translate(7 11)" fill="#00474F"/>
<rect width="1" height="1" transform="translate(8 5)" fill="#FFD8BF"/>
<rect width="1" height="1" transform="translate(8 1)" fill="#FFD8BF"/>
<rect width="1" height="1" transform="translate(8 9)" fill="#36CFC9"/>
<rect width="1" height="1" transform="translate(8 7)" fill="#13C2C2"/>
<rect width="1" height="1" transform="translate(8 3)" fill="#FFD8BF"/>
<rect width="1" height="1" transform="translate(9 9)" fill="#FFD8BF"/>
<rect width="1" height="1" transform="translate(0 8)" fill="#002329"/>
<rect width="1" height="1" transform="translate(0 4)" fill="#FFD8BF"/>
<rect width="1" height="1" transform="translate(1 6)" fill="#002329"/>
<rect width="1" height="1" transform="translate(1 2)" fill="#FFD8BF"/>
<rect width="1" height="1" transform="translate(1 10)" fill="#002329"/>
<rect width="1" height="1" transform="translate(1 8)" fill="#00474F"/>
<rect width="1" height="1" transform="translate(1 4)" fill="#FFD8BF"/>
<rect width="1" height="1" transform="translate(2 6)" fill="#13C2C2"/>
<rect width="1" height="1" transform="translate(2 2)" fill="#FFD8BF"/>
<rect width="1" height="1" transform="translate(2 10)" fill="black"/>
<rect width="1" height="1" transform="translate(2 8)" fill="#36CFC9"/>
<rect width="1" height="1" transform="translate(2 4)" fill="#FFD8BF"/>
<rect width="1" height="1" transform="translate(2 12)" fill="#531DAB"/>
<rect width="1" height="1" transform="translate(3 6)" fill="#FFD8BF"/>
<rect width="1" height="1" transform="translate(3 2)" fill="#FFD8BF"/>
<rect width="1" height="1" transform="translate(3 10)" fill="#00474F"/>
<rect width="1" height="1" transform="translate(3 8)" fill="#00474F"/>
<rect width="1" height="1" transform="translate(3 4)" fill="black"/>
<rect width="1" height="1" transform="translate(3 12)" fill="#531DAB"/>
<rect width="1" height="1" transform="translate(4 6)" fill="#FFD8BF"/>
<rect width="1" height="1" transform="translate(4 2)" fill="#FFD8BF"/>
<rect width="1" height="1" transform="translate(4 10)" fill="#00474F"/>
<rect width="1" height="1" transform="translate(4)" fill="#FF4D4F"/>
<rect width="1" height="1" transform="translate(4 8)" fill="#13C2C2"/>
<rect width="1" height="1" transform="translate(4 4)" fill="#FFD8BF"/>
<rect width="1" height="1" transform="translate(5 6)" fill="#FF9C6E"/>
<rect width="1" height="1" transform="translate(5 2)" fill="#FFD8BF"/>
<rect width="1" height="1" transform="translate(5 10)" fill="#00474F"/>
<rect width="1" height="1" transform="translate(5)" fill="#F5222D"/>
<rect width="1" height="1" transform="translate(5 8)" fill="#13C2C2"/>
<rect width="1" height="1" transform="translate(5 4)" fill="#FFD8BF"/>
<rect width="1" height="1" transform="translate(6 6)" fill="#FFD8BF"/>
<rect width="1" height="1" transform="translate(6 2)" fill="#FFD8BF"/>
<rect width="1" height="1" transform="translate(6 10)" fill="#00474F"/>
<rect width="1" height="1" transform="translate(6)" fill="#FF4D4F"/>
<rect width="1" height="1" transform="translate(6 8)" fill="#13C2C2"/>
<rect width="1" height="1" transform="translate(6 4)" fill="#FFD8BF"/>
<rect width="1" height="1" transform="translate(6 12)" fill="#531DAB"/>
<rect width="1" height="1" transform="translate(7 6)" fill="#FFD8BF"/>
<rect width="1" height="1" transform="translate(7 2)" fill="#FFD8BF"/>
<rect width="1" height="1" transform="translate(7 10)" fill="#00474F"/>
<rect width="1" height="1" transform="translate(7 8)" fill="#13C2C2"/>
<rect width="1" height="1" transform="translate(7 4)" fill="black"/>
<rect width="1" height="1" transform="translate(7 12)" fill="#531DAB"/>
<rect width="1" height="1" transform="translate(8 2)" fill="#FFD8BF"/>
<rect width="1" height="1" transform="translate(8 8)" fill="#36CFC9"/>
<rect width="1" height="1" transform="translate(8 4)" fill="#FFD8BF"/>
</svg>
